--------------------------------------------------------------------------------
Firelight 2012 DVDRip XVID AC3-TRiNiTY
--------------------------------------------------------------------------------

ooooooooooooo ooooooooo. o8o ooooo ooo o8o ooooooooooooo oooooo oooo
 8' 888 `8 `888 `Y88. `"' `888b. `8' `"' 8' 888 `8 `888. .8'
 888 888 .d88' oooo 8 `88b. 8 oooo 888 `888. .8'
 888 888ooo88P' `888 8 `88b. 8 `888 888 `888.8'
 888 888`88b. 888 8 `88b.8 888 888 `888'
 888 888 `88b. 888 8 `888 888 888 888
 o888o o888o o888o o888o o8o `8 o888o o888o o888o
 ___________ ______
 ______ ___ /__ /____ _____________ __ /
 _ __ `/_ /__ /__ / / / ___/ __ `/ __/
 / /_/ /_ / _ / _ /_/ // /__ / /_/ // /
 __,_/ /_/ /_/ ___, / ___/ __,_/ __/
 /____/
 
EnCoDer:Allycat
 
General  http://www.imdb.com/title/tt2281241/
 Complete name: Firelight.2012.DVDRip.XVID.AC3-TRiNiTY.avi
 Format: AVI
 Format/Info: Audio Video Interleave
 File size: 1.44 GiB
 Duration: 1h 36mn
 Overall bit rate: 2 142 Kbps
 Writing library: VirtualDub build 30091/release
 
Video
 ID: 0
 Format: MPEG-4 Visual
 Format profile: Advanced Simple@L5
 Format settings, BVOP: 2
 Format settings, QPel: No
 Format settings, GMC: No warppoints
 Format settings, Matrix: Default (H.263)
 Codec ID: XVID
 Codec ID/Hint: XviD
 Duration: 1h 36mn
 Bit rate: 1 749 Kbps
 Width: 624 pixels
 Height: 352 pixels
 Display aspect ratio: 16:9
 Frame rate: 23.976 fps
 Color space: YUV
 Chroma subsampling: 4:2:0
 Bit depth: 8 bits
 Scan type: Progressive
 Compression mode: Lossy
 Bits/(Pixel*Frame): 0.332
 Stream size: 1.18 GiB (82%)
 Writing library: XviD 1.2.1 (UTC 2008-12-04)
 
Audio
 ID: 1
 Format: AC-3
 Format/Info: Audio Coding 3
 Mode extension: CM (complete main)
 Codec ID: 2000
 Duration: 1h 36mn
 Bit rate mode: Constant
 Bit rate: 384 Kbps
 Channel(s): 6 channels
 Channel positions: Front: L C R, Side: L R, LFE
 Sampling rate: 48.0 KHz
 Bit depth: 16 bits
 Compression mode: Lossy
 Stream size: 265 MiB (18%)
 Alignment: Aligned on interleaves
 Interleave, duration: 42 ms (1.00 video frame)
 Interleave, preload duration: 512 ms

